<svg width="32" height="32" viewBox="0 0 32 32" fill="none" xmlns="http://www.w3.org/2000/svg">
<rect width="32" height="32" rx="9" fill="white"/>
<path d="M16 7.04661C18.9152 7.04661 19.2608 7.05621 20.4128 7.11061C21.4784 7.15861 22.0576 7.33781 22.4416 7.48821C22.9504 7.68661 23.3152 7.92341 23.696 8.30421C24.0768 8.68501 24.3136 9.04981 24.512 9.55861C24.6624 9.94261 24.8384 10.5218 24.8896 11.5874C24.9408 12.7394 24.9536 13.085 24.9536 16.0002C24.9536 18.9154 24.944 19.261 24.8896 20.413C24.8416 21.4786 24.6624 22.0578 24.512 22.4418C24.3136 22.9506 24.0768 23.3154 23.696 23.6962C23.3152 24.077 22.9504 24.3138 22.4416 24.5122C22.0576 24.6626 21.4784 24.8386 20.4128 24.8898C19.2608 24.941 18.9152 24.9538 16 24.9538C13.0848 24.9538 12.7392 24.9442 11.5872 24.8898C10.5216 24.8418 9.9424 24.6626 9.5584 24.5122C9.0496 24.3138 8.6848 24.077 8.304 23.6962C7.9232 23.3154 7.6864 22.9506 7.488 22.4418C7.3376 22.0578 7.1616 21.4786 7.1104 20.413C7.0592 19.261 7.0464 18.9154 7.0464 16.0002C7.0464 13.085 7.056 12.7394 7.1104 11.5874C7.1584 10.5218 7.3376 9.94261 7.488 9.55861C7.6864 9.04981 7.9232 8.68501 8.304 8.30421C8.6848 7.92341 9.0496 7.68661 9.5584 7.48821C9.9424 7.33781 10.5216 7.16181 11.5872 7.11061C12.7392 7.05621 13.0848 7.04661 16 7.04661ZM16 5.07861C13.0336 5.07861 12.6624 5.09141 11.4976 5.14581C10.336 5.20021 9.5424 5.38261 8.8448 5.65461C8.128 5.92981 7.5168 6.30421 6.912 6.91221C6.304 7.52021 5.9328 8.12821 5.6512 8.84821C5.3824 9.54261 5.1968 10.3362 5.1424 11.501C5.088 12.6658 5.0752 13.037 5.0752 16.0034C5.0752 18.9698 5.088 19.341 5.1424 20.5058C5.1968 21.6674 5.3792 22.461 5.6512 23.1586C5.9296 23.8722 6.304 24.4834 6.912 25.0882C7.52 25.6962 8.128 26.0674 8.848 26.349C9.5424 26.6178 10.336 26.8034 11.5008 26.8578C12.6656 26.9122 13.0368 26.925 16.0032 26.925C18.9696 26.925 19.3408 26.9122 20.5056 26.8578C21.6672 26.8034 22.4608 26.621 23.1584 26.349C23.872 26.0706 24.4832 25.6962 25.088 25.0882C25.696 24.4802 26.0672 23.8722 26.3488 23.1522C26.6176 22.4578 26.8032 21.6642 26.8576 20.4994C26.912 19.3346 26.9248 18.9634 26.9248 15.997C26.9248 13.0306 26.912 12.6594 26.8576 11.4946C26.8032 10.333 26.6208 9.53941 26.3488 8.84181C26.0704 8.12821 25.696 7.51701 25.088 6.91221C24.48 6.30421 23.872 5.93301 23.152 5.65141C22.4576 5.38261 21.664 5.19701 20.4992 5.14261C19.3376 5.09141 18.9664 5.07861 16 5.07861Z" fill="#060606"/>
<path d="M16 10.3906C12.9024 10.3906 10.3904 12.9026 10.3904 16.0002C10.3904 19.0978 12.9024 21.6098 16 21.6098C19.0976 21.6098 21.6096 19.0978 21.6096 16.0002C21.6096 12.9026 19.0976 10.3906 16 10.3906ZM16 19.6418C13.9904 19.6418 12.3584 18.013 12.3584 16.0002C12.3584 13.9874 13.9904 12.3586 16 12.3586C18.0096 12.3586 19.6416 13.9874 19.6416 16.0002C19.6416 18.013 18.0096 19.6418 16 19.6418Z" fill="#060606"/>
<path d="M21.8303 11.4814C22.5549 11.4814 23.1423 10.894 23.1423 10.1694C23.1423 9.44482 22.5549 8.85742 21.8303 8.85742C21.1057 8.85742 20.5183 9.44482 20.5183 10.1694C20.5183 10.894 21.1057 11.4814 21.8303 11.4814Z" fill="#060606"/>
</svg>
