<svg width="32" height="32" viewBox="0 0 32 32" fill="none" xmlns="http://www.w3.org/2000/svg">
<rect width="32" height="32" rx="9" fill="white"/>
<path d="M27.625 16C27.625 22.4203 22.4203 27.625 16 27.625C9.57969 27.625 4.375 22.4203 4.375 16C4.375 9.57969 9.57969 4.375 16 4.375C22.4203 4.375 27.625 9.57969 27.625 16Z" stroke="#060606" stroke-width="0.75"/>
<path fill-rule="evenodd" clip-rule="evenodd" d="M22.4491 10.3738L20.0838 22.304C20.0838 22.304 19.7525 23.1322 18.8416 22.7336L15.4084 20.1009L15.4722 20.1509L13.3139 22.1229C13.3139 22.1229 13.1431 22.2523 12.9619 22.1694L13.0773 21.1496L13.3967 18.4481C13.3967 18.4481 19.4524 13.0031 19.7008 12.7702C19.9492 12.5425 19.8664 12.4907 19.8664 12.4907C19.8871 12.2112 19.4213 12.4907 19.4213 12.4907L11.3937 17.5889C11.3937 17.5889 11.3937 17.5889 11.3937 17.5889L11.3936 17.5889L8.05009 16.4657C8.05009 16.4657 7.53768 16.2846 7.48593 15.8861C7.43417 15.4875 8.06561 15.2753 8.06561 15.2753L21.357 10.0633C21.357 10.0581 22.4491 9.57678 22.4491 10.3738Z" fill="#060606"/>
</svg>
