<svg width="32" height="32" viewBox="0 0 32 32" fill="none" xmlns="http://www.w3.org/2000/svg">
<rect width="32" height="32" rx="12" fill="white"/>
<path fill-rule="evenodd" clip-rule="evenodd" d="M16.4469 5.76645C21.6503 5.78909 23.9841 7.48275 24.5607 8.01391C26.4768 9.68028 27.5392 13.3671 26.8218 19.2062C26.1937 24.3558 22.6048 25.2695 21.3972 25.5769C21.2781 25.6072 21.1822 25.6316 21.1145 25.6536C20.7877 25.758 17.9225 26.4754 14.1903 26.1621C13.7771 26.6389 13.2323 27.2655 12.8373 27.6923C12.7177 27.8209 12.6056 27.9481 12.4986 28.0696C11.9594 28.6816 11.5455 29.1515 10.9167 28.9545C10.2901 28.7638 10.3264 27.8148 10.3264 27.8148L10.3309 25.472H10.3264C4.87333 23.9372 4.95051 18.28 5.0141 15.2605C5.07768 12.2411 5.66338 9.80285 7.3252 8.14113C10.3128 5.39869 16.4469 5.76645 16.4469 5.76645ZM20.7831 23.9372C21.8101 23.6976 24.6644 23.0314 25.1918 18.7794C25.7957 13.9075 24.9693 10.5838 23.3484 9.19444C22.858 8.74946 20.7512 7.4237 16.3516 7.40556C16.3516 7.40556 11.1437 7.065 8.61464 9.35795C7.20711 10.7473 6.73033 12.8132 6.68039 15.3331C6.67868 15.4198 6.6767 15.5092 6.67466 15.6011C6.61751 18.1803 6.51703 22.7145 10.9802 23.9509C10.9802 23.9509 10.9621 27.5288 10.9621 27.842C10.9575 28.3188 11.2209 28.3415 11.4615 28.1009C12.1971 27.3607 14.5581 24.5139 14.5581 24.5139C17.7228 24.7182 20.2427 24.0916 20.5152 24.0054C20.5784 23.985 20.6696 23.9637 20.7831 23.9372Z" fill="#060606"/>
<path d="M18.8806 15.1105C18.8987 15.501 18.313 15.5282 18.2949 15.1377C18.2449 14.1388 17.7772 13.653 16.8147 13.5986C16.4242 13.5758 16.4605 12.9901 16.8464 13.0129C18.1133 13.0809 18.817 13.8074 18.8806 15.1105Z" fill="#060606"/>
<path d="M19.8024 15.6237C19.8477 13.6986 18.6446 12.1911 16.3606 12.0232C15.9747 11.996 16.0156 11.4102 16.4016 11.4374C19.0351 11.6282 20.438 13.4398 20.388 15.6374C20.3835 16.0278 19.7932 16.0097 19.8024 15.6237Z" fill="#060606"/>
<path d="M21.9363 16.2324C21.9408 16.6229 21.3505 16.6274 21.3505 16.2369C21.3233 12.5365 18.8579 10.5205 15.8656 10.4978C15.4797 10.4933 15.4797 9.91211 15.8656 9.91211C19.212 9.9348 21.9045 12.2459 21.9363 16.2324Z" fill="#060606"/>
<path d="M21.4233 20.6863V20.6954C20.9329 21.5581 20.0158 22.5116 19.0714 22.2074L19.0623 22.1937C18.1042 21.9259 15.8477 20.7636 14.422 19.6284C13.6864 19.0472 13.0144 18.3616 12.4968 17.7032C12.0292 17.1175 11.557 16.4228 11.0984 15.5874C10.1313 13.8393 9.91791 13.0584 9.91791 13.0584C9.61369 12.1139 10.5626 11.1967 11.4298 10.7064H11.439C11.8567 10.4884 12.2562 10.5611 12.5241 10.8834C12.5241 10.8834 13.0871 11.5553 13.3277 11.8869C13.5548 12.1956 13.859 12.6905 14.0179 12.9675C14.2949 13.4623 14.1223 13.9664 13.8499 14.1752L13.305 14.6111C13.0281 14.8335 13.0644 15.2467 13.0644 15.2467C13.0644 15.2467 13.8726 18.3025 16.892 19.0744C16.892 19.0744 17.3052 19.1107 17.5276 18.8338L17.9636 18.2889C18.1724 18.0165 18.6764 17.844 19.1713 18.1209C19.8388 18.4977 20.6878 19.0835 21.2509 19.6147C21.5686 19.8735 21.6413 20.2686 21.4233 20.6863Z" fill="#060606"/>
</svg>
