<svg width="105" height="47" viewBox="0 0 105 47" fill="none" xmlns="http://www.w3.org/2000/svg">
<path d="M24.7715 33.357C23.1244 33.7371 19.6021 35.663 18.6899 40.3256C17.7776 44.9882 14.8466 46.3228 13.4951 46.4072" stroke="#34E6F6" stroke-linecap="round" stroke-linejoin="round"/>
<path d="M24.2644 8.39683C22.6595 8.90364 18.9429 9.3851 16.9157 7.25652C14.3817 4.59579 8.42672 -1.10577 3.73877 1.80836C-0.949174 4.72249 0.697956 13.5916 6.27281 18.913C10.6873 23.1268 9.56704 41.0857 10.7074 43.6198C11.2151 44.7481 12.7346 45.7737 14.255 43.2397" stroke="#34E6F6" stroke-linecap="round" stroke-linejoin="round"/>
<path d="M32.4999 4.97592C26.7983 12.578 18.1827 14.4785 14.7617 8.39686" stroke="#34E6F6" stroke-linecap="round" stroke-linejoin="round"/>
<path d="M14.5041 29C14.3654 29 14.2961 28.9147 14.2961 28.744C14.2961 28.6053 14.3654 28.536 14.5041 28.536C14.9521 28.536 15.3148 28.376 15.5921 28.056C15.8694 27.7253 16.0081 27.1707 16.0081 26.392V18.936C16.0081 18.552 15.9174 18.2747 15.7361 18.104C15.5654 17.9227 15.2614 17.832 14.8241 17.832C14.6854 17.832 14.6161 17.7573 14.6161 17.608C14.6161 17.4587 14.6854 17.384 14.8241 17.384C14.9201 17.384 15.2508 17.3893 15.8161 17.4C16.3814 17.4107 17.0534 17.416 17.8321 17.416C18.1948 17.416 18.4241 17.5547 18.5201 17.832C18.5414 17.8853 18.6001 18.056 18.6961 18.344C18.8028 18.632 18.9308 18.9947 19.0801 19.432C19.2401 19.8693 19.4108 20.3493 19.5921 20.872C19.7734 21.384 19.9548 21.896 20.1361 22.408C20.3281 22.92 20.5041 23.4 20.6641 23.848C20.8241 24.2853 20.9574 24.6533 21.0641 24.952C21.1708 25.2507 21.2348 25.432 21.2561 25.496C21.2988 25.4 21.3894 25.1653 21.5281 24.792C21.6668 24.408 21.8321 23.944 22.0241 23.4C22.2161 22.8453 22.4188 22.2693 22.6321 21.672C22.8454 21.0747 23.0428 20.504 23.2241 19.96C23.4161 19.416 23.5761 18.9573 23.7041 18.584C23.8321 18.2 23.9068 17.9707 23.9281 17.896C24.0241 17.576 24.2588 17.416 24.6321 17.416C25.4108 17.416 26.0614 17.4107 26.5841 17.4C27.1068 17.3893 27.4054 17.384 27.4801 17.384C27.6188 17.384 27.6881 17.4587 27.6881 17.608C27.6881 17.7573 27.6188 17.832 27.4801 17.832C27.0854 17.832 26.8081 17.9173 26.6481 18.088C26.4988 18.248 26.4241 18.4827 26.4241 18.792V27.512C26.4241 27.8533 26.4881 28.1093 26.6161 28.28C26.7441 28.4507 27.0001 28.536 27.3841 28.536C27.5228 28.536 27.5921 28.6053 27.5921 28.744C27.5921 28.9147 27.5228 29 27.3841 29C27.2774 29 27.0641 28.9947 26.7441 28.984C26.4348 28.9627 26.0348 28.952 25.5441 28.952C25.2348 28.952 24.9094 28.9573 24.5681 28.968C24.2374 28.968 23.9494 28.9733 23.7041 28.984C23.4588 28.9947 23.2988 29 23.2241 29C23.0641 29 22.9841 28.9147 22.9841 28.744C22.9841 28.6053 23.0641 28.536 23.2241 28.536C23.7148 28.536 24.0508 28.4613 24.2321 28.312C24.4134 28.152 24.5041 27.8853 24.5041 27.512V18.104C23.8108 20.12 23.2241 21.8 22.7441 23.144C22.2748 24.488 21.8961 25.5547 21.6081 26.344C21.3308 27.1227 21.1281 27.6773 21.0001 28.008C20.8828 28.3387 20.8241 28.504 20.8241 28.504C20.7921 28.5893 20.7601 28.6427 20.7281 28.664C20.7068 28.6747 20.6694 28.68 20.6161 28.68C20.5308 28.68 20.4668 28.632 20.4241 28.536C20.4134 28.5253 20.3494 28.3653 20.2321 28.056C20.1148 27.736 19.9548 27.32 19.7521 26.808C19.5601 26.296 19.3414 25.7253 19.0961 25.096C18.8508 24.4667 18.6001 23.8267 18.3441 23.176C18.0988 22.5147 17.8588 21.8853 17.6241 21.288C17.3894 20.68 17.1814 20.1467 17.0001 19.688C16.8188 19.2187 16.6854 18.8667 16.6001 18.632V26.376C16.6001 27.1867 16.7601 27.752 17.0801 28.072C17.4001 28.3813 17.7734 28.536 18.2001 28.536C18.3601 28.536 18.4401 28.6053 18.4401 28.744C18.4401 28.9147 18.3601 29 18.2001 29C18.0934 29 17.8748 28.9947 17.5441 28.984C17.2241 28.9627 16.8294 28.952 16.3601 28.952C15.8054 28.952 15.3841 28.9627 15.0961 28.984C14.8188 28.9947 14.6214 29 14.5041 29ZM32.3151 29.192C31.0991 29.192 30.1444 28.8613 29.4511 28.2C28.7684 27.5387 28.4271 26.5893 28.4271 25.352C28.4271 24.5733 28.5818 23.8747 28.8911 23.256C29.2004 22.6373 29.6378 22.1467 30.2031 21.784C30.7791 21.4213 31.4458 21.24 32.2031 21.24C32.7791 21.24 33.2804 21.352 33.7071 21.576C34.1338 21.8 34.4858 22.0933 34.7631 22.456C35.0404 22.8187 35.2484 23.2133 35.3871 23.64C35.5258 24.056 35.5951 24.4667 35.5951 24.872C35.5951 25.0427 35.4884 25.128 35.2751 25.128H30.3151C30.2938 25.9387 30.3631 26.5733 30.5231 27.032C30.6938 27.4907 30.9444 27.8107 31.2751 27.992C31.6058 28.1733 32.0058 28.264 32.4751 28.264C33.0191 28.264 33.5044 28.1467 33.9311 27.912C34.3684 27.6773 34.7258 27.384 35.0031 27.032C35.1204 26.8933 35.2538 26.872 35.4031 26.968C35.5524 27.064 35.5738 27.192 35.4671 27.352C35.2538 27.672 35.0084 27.9707 34.7311 28.248C34.4644 28.5253 34.1338 28.7547 33.7391 28.936C33.3551 29.1067 32.8804 29.192 32.3151 29.192ZM30.3471 24.504H33.6751C33.6964 23.992 33.6591 23.5333 33.5631 23.128C33.4778 22.7227 33.3231 22.4027 33.0991 22.168C32.8858 21.9333 32.5764 21.816 32.1711 21.816C31.6591 21.816 31.2591 22.0613 30.9711 22.552C30.6831 23.032 30.4751 23.6827 30.3471 24.504ZM36.9762 29C36.8056 29 36.7202 28.9093 36.7202 28.728C36.7202 28.5573 36.8056 28.472 36.9762 28.472C37.3816 28.472 37.6429 28.3973 37.7602 28.248C37.8882 28.088 37.9522 27.848 37.9522 27.528V22.904C37.9522 22.584 37.8882 22.3493 37.7602 22.2C37.6429 22.04 37.3816 21.96 36.9762 21.96C36.8056 21.96 36.7202 21.8693 36.7202 21.688C36.7202 21.5173 36.8056 21.432 36.9762 21.432C37.0509 21.432 37.2376 21.4373 37.5362 21.448C37.8349 21.448 38.1922 21.4533 38.6082 21.464C39.0349 21.4747 39.4722 21.48 39.9202 21.48C40.3576 21.48 40.8002 21.4747 41.2482 21.464C41.7069 21.4533 42.0962 21.448 42.4162 21.448C42.7362 21.4373 42.9069 21.432 42.9282 21.432C43.0562 21.432 43.1469 21.4533 43.2002 21.496C43.2536 21.528 43.2856 21.608 43.2962 21.736C43.2962 21.8107 43.2962 21.9493 43.2962 22.152C43.3069 22.344 43.3122 22.552 43.3122 22.776C43.3122 23 43.3122 23.2027 43.3122 23.384C43.3229 23.5547 43.3282 23.656 43.3282 23.688C43.3282 23.8267 43.2482 23.9173 43.0882 23.96C42.9282 24.0027 42.8162 23.9653 42.7522 23.848C42.6349 23.592 42.4909 23.32 42.3202 23.032C42.1496 22.744 41.9362 22.504 41.6802 22.312C41.4242 22.1093 41.1096 22.008 40.7362 22.008H40.2722C40.0482 22.008 39.8882 22.0613 39.7922 22.168C39.7069 22.2747 39.6642 22.4507 39.6642 22.696V27.528C39.6642 27.848 39.7176 28.088 39.8242 28.248C39.9416 28.3973 40.1709 28.472 40.5122 28.472C40.6829 28.472 40.7682 28.5573 40.7682 28.728C40.7682 28.9093 40.6829 29 40.5122 29C40.4376 29 40.2989 28.9947 40.0962 28.984C39.8936 28.9733 39.6749 28.968 39.4402 28.968C39.2162 28.9573 39.0082 28.952 38.8162 28.952C38.6349 28.952 38.4109 28.9573 38.1442 28.968C37.8882 28.968 37.6482 28.9733 37.4242 28.984C37.2109 28.9947 37.0616 29 36.9762 29ZM46.8427 29.192C46.1494 29.192 45.5734 29.032 45.1147 28.712C44.6667 28.392 44.4427 27.8587 44.4427 27.112C44.4427 26.4827 44.6347 25.9653 45.0187 25.56C45.4134 25.144 45.9627 24.84 46.6667 24.648C47.3707 24.4453 48.1921 24.3493 49.1307 24.36V23.736C49.1307 23.16 49.0294 22.7067 48.8267 22.376C48.6241 22.0347 48.2987 21.864 47.8507 21.864C47.4347 21.864 47.1201 21.944 46.9067 22.104C46.6934 22.2533 46.6401 22.4507 46.7467 22.696C46.9174 23.0587 46.9121 23.384 46.7307 23.672C46.5494 23.9493 46.2401 24.088 45.8027 24.088C45.5361 24.088 45.3121 24.0027 45.1307 23.832C44.9494 23.6507 44.8587 23.4 44.8587 23.08C44.8587 22.76 44.9921 22.4613 45.2587 22.184C45.5254 21.9067 45.8881 21.6827 46.3467 21.512C46.8161 21.3307 47.3441 21.24 47.9307 21.24C48.9014 21.24 49.6321 21.4533 50.1227 21.88C50.6134 22.3067 50.8587 22.8933 50.8587 23.64V27.032C50.8587 27.4587 50.9014 27.736 50.9867 27.864C51.0827 27.9813 51.2001 28.04 51.3387 28.04C51.4454 28.04 51.5361 28.024 51.6107 27.992C51.6961 27.9493 51.7601 27.9067 51.8027 27.864C51.9201 27.7467 52.0374 27.752 52.1547 27.88C52.2081 27.9333 52.2294 27.992 52.2187 28.056C52.2081 28.12 52.1814 28.184 52.1387 28.248C51.9894 28.4933 51.8027 28.7013 51.5787 28.872C51.3654 29.032 51.1041 29.112 50.7947 29.112C50.4001 29.112 50.0641 29.0107 49.7867 28.808C49.5201 28.6053 49.3334 28.2907 49.2267 27.864C49.0347 28.216 48.7574 28.5253 48.3947 28.792C48.0427 29.0587 47.5254 29.192 46.8427 29.192ZM47.6427 28.232C47.9521 28.232 48.2187 28.1467 48.4427 27.976C48.6667 27.7947 48.8374 27.5813 48.9547 27.336C49.0721 27.0907 49.1307 26.856 49.1307 26.632V24.92C48.2881 24.8987 47.6107 25.032 47.0987 25.32C46.5867 25.608 46.3307 26.1147 46.3307 26.84C46.3307 27.256 46.4107 27.5653 46.5707 27.768C46.7307 27.96 46.9121 28.088 47.1147 28.152C47.3281 28.2053 47.5041 28.232 47.6427 28.232ZM63.3307 29.192C62.5841 29.192 61.8747 29.0693 61.2027 28.824C60.5414 28.568 59.9494 28.1893 59.4267 27.688C58.9147 27.1867 58.5094 26.5627 58.2107 25.816C57.9227 25.0693 57.7787 24.2 57.7787 23.208C57.7787 22.2373 57.9281 21.3787 58.2267 20.632C58.5254 19.8853 58.9307 19.256 59.4427 18.744C59.9654 18.232 60.5574 17.848 61.2187 17.592C61.8907 17.3253 62.6001 17.192 63.3467 17.192C63.9014 17.192 64.4241 17.2347 64.9147 17.32C65.4161 17.3947 65.8481 17.4853 66.2107 17.592C66.5734 17.688 66.8401 17.768 67.0107 17.832C67.1707 17.8853 67.2507 17.992 67.2507 18.152C67.2614 18.248 67.2721 18.3973 67.2827 18.6C67.2934 18.8027 67.3041 19.0213 67.3147 19.256C67.3254 19.4907 67.3361 19.6987 67.3467 19.88C67.3574 20.0613 67.3627 20.1733 67.3627 20.216C67.3627 20.2587 67.3361 20.3067 67.2827 20.36C67.2401 20.4027 67.1814 20.424 67.1067 20.424C67.0961 20.424 67.0801 20.424 67.0587 20.424C66.9734 20.424 66.8987 20.4187 66.8347 20.408C66.7814 20.3867 66.7441 20.3333 66.7227 20.248C66.6267 19.8533 66.4454 19.464 66.1787 19.08C65.9121 18.696 65.5441 18.376 65.0747 18.12C64.6161 17.864 64.0347 17.736 63.3307 17.736C62.8081 17.736 62.2961 17.928 61.7947 18.312C61.2934 18.6853 60.8774 19.272 60.5467 20.072C60.2161 20.872 60.0507 21.9173 60.0507 23.208C60.0507 24.2 60.1521 25.0373 60.3547 25.72C60.5574 26.4027 60.8187 26.9573 61.1387 27.384C61.4694 27.8107 61.8267 28.12 62.2107 28.312C62.5947 28.504 62.9734 28.6 63.3467 28.6C63.8907 28.6 64.3601 28.5147 64.7547 28.344C65.1601 28.1627 65.5014 27.9333 65.7787 27.656C66.0561 27.3787 66.2801 27.0747 66.4507 26.744C66.6214 26.4133 66.7547 26.0987 66.8507 25.8C66.8721 25.7147 66.9201 25.6667 66.9947 25.656C67.0694 25.6453 67.1441 25.64 67.2187 25.64C67.3041 25.64 67.3681 25.6667 67.4107 25.72C67.4641 25.7627 67.4907 25.8107 67.4907 25.864C67.4907 25.896 67.4854 26.0133 67.4747 26.216C67.4747 26.408 67.4694 26.6373 67.4587 26.904C67.4481 27.16 67.4374 27.3947 67.4267 27.608C67.4161 27.8213 67.4054 27.9547 67.3947 28.008C67.3734 28.168 67.2667 28.3013 67.0747 28.408C66.9361 28.4827 66.7014 28.584 66.3707 28.712C66.0507 28.8293 65.6347 28.936 65.1227 29.032C64.6214 29.1387 64.0241 29.192 63.3307 29.192ZM70.2816 29C70.1216 29 70.0416 28.9093 70.0416 28.728C70.0416 28.5573 70.1216 28.472 70.2816 28.472C70.6976 28.472 70.9909 28.3973 71.1616 28.248C71.3323 28.088 71.4176 27.848 71.4176 27.528V22.712C71.4176 22.456 71.3749 22.28 71.2896 22.184C71.2149 22.0773 71.0549 22.024 70.8096 22.024C70.4896 22.024 70.2016 22.1147 69.9456 22.296C69.7003 22.4667 69.4923 22.68 69.3216 22.936C69.1509 23.1813 69.0123 23.416 68.9056 23.64C68.8523 23.7573 68.7403 23.8053 68.5696 23.784C68.4096 23.7627 68.3296 23.6827 68.3296 23.544C68.3296 23.5013 68.3296 23.4053 68.3296 23.256C68.3403 23.096 68.3456 22.9147 68.3456 22.712C68.3563 22.5093 68.3616 22.3173 68.3616 22.136C68.3723 21.9547 68.3776 21.8267 68.3776 21.752C68.3776 21.624 68.4043 21.5387 68.4576 21.496C68.5216 21.4533 68.6123 21.432 68.7296 21.432C68.7509 21.432 68.8576 21.4373 69.0496 21.448C69.2416 21.448 69.4709 21.4533 69.7376 21.464C70.0043 21.464 70.2603 21.4693 70.5056 21.48C70.7509 21.48 70.9376 21.48 71.0656 21.48H73.4816C73.6629 21.48 73.8763 21.48 74.1216 21.48C74.3776 21.4693 74.6283 21.464 74.8736 21.464C75.1189 21.4533 75.3269 21.448 75.4976 21.448C75.6789 21.4373 75.7803 21.432 75.8016 21.432C75.9189 21.432 76.0043 21.4533 76.0576 21.496C76.1216 21.5387 76.1536 21.624 76.1536 21.752C76.1536 21.8267 76.1536 21.9547 76.1536 22.136C76.1643 22.3173 76.1696 22.5093 76.1696 22.712C76.1803 22.9147 76.1856 23.096 76.1856 23.256C76.1963 23.4053 76.2016 23.5013 76.2016 23.544C76.2016 23.6827 76.1163 23.7627 75.9456 23.784C75.7856 23.8053 75.6789 23.7573 75.6256 23.64C75.5189 23.416 75.3803 23.1813 75.2096 22.936C75.0389 22.68 74.8309 22.4667 74.5856 22.296C74.3403 22.1147 74.0523 22.024 73.7216 22.024C73.4869 22.024 73.3269 22.0773 73.2416 22.184C73.1669 22.28 73.1296 22.456 73.1296 22.712V27.528C73.1296 27.848 73.2149 28.088 73.3856 28.248C73.5563 28.3973 73.8496 28.472 74.2656 28.472C74.4256 28.472 74.5056 28.5573 74.5056 28.728C74.5056 28.9093 74.4256 29 74.2656 29C74.1909 29 74.0256 28.9947 73.7696 28.984C73.5243 28.9733 73.2629 28.968 72.9856 28.968C72.7083 28.9573 72.4736 28.952 72.2816 28.952C72.1003 28.952 71.8656 28.9573 71.5776 28.968C71.2896 28.968 71.0229 28.9733 70.7776 28.984C70.5323 28.9947 70.3669 29 70.2816 29ZM80.9375 29.192C80.1695 29.192 79.5028 29.0213 78.9375 28.68C78.3722 28.328 77.9348 27.8533 77.6255 27.256C77.3162 26.6587 77.1615 25.976 77.1615 25.208C77.1615 24.44 77.3162 23.7573 77.6255 23.16C77.9348 22.5627 78.3722 22.0933 78.9375 21.752C79.5028 21.4107 80.1695 21.24 80.9375 21.24C81.7055 21.24 82.3668 21.4107 82.9215 21.752C83.4868 22.0933 83.9242 22.5627 84.2335 23.16C84.5428 23.7573 84.6975 24.44 84.6975 25.208C84.6975 25.976 84.5428 26.6587 84.2335 27.256C83.9242 27.8533 83.4868 28.328 82.9215 28.68C82.3668 29.0213 81.7055 29.192 80.9375 29.192ZM80.9375 28.648C81.5988 28.648 82.0735 28.3333 82.3615 27.704C82.6602 27.064 82.8095 26.232 82.8095 25.208C82.8095 24.1947 82.6602 23.3733 82.3615 22.744C82.0735 22.104 81.5988 21.784 80.9375 21.784C80.2762 21.784 79.7962 22.104 79.4975 22.744C79.1988 23.3733 79.0495 24.1947 79.0495 25.208C79.0495 26.232 79.1988 27.064 79.4975 27.704C79.7962 28.3333 80.2762 28.648 80.9375 28.648ZM85.8977 29C85.7377 29 85.6577 28.9093 85.6577 28.728C85.6577 28.6533 85.6791 28.5893 85.7217 28.536C85.7644 28.472 85.8231 28.44 85.8977 28.44C86.2711 28.44 86.5324 28.3707 86.6817 28.232C86.8417 28.0827 86.9217 27.8587 86.9217 27.56V22.872C86.9217 22.6053 86.8524 22.3867 86.7137 22.216C86.5751 22.0453 86.3191 21.96 85.9457 21.96C85.7857 21.96 85.7057 21.8693 85.7057 21.688C85.7057 21.5173 85.7857 21.432 85.9457 21.432C86.0631 21.432 86.2337 21.4373 86.4577 21.448C86.6817 21.4587 86.9324 21.464 87.2097 21.464H88.6337C88.7617 21.464 88.8577 21.4907 88.9217 21.544C88.9857 21.5867 89.0337 21.6507 89.0657 21.736C89.0871 21.7893 89.1457 21.9493 89.2417 22.216C89.3377 22.472 89.4551 22.7867 89.5937 23.16C89.7324 23.5333 89.8764 23.9227 90.0257 24.328C90.1751 24.7333 90.3137 25.1173 90.4417 25.48C90.5804 25.8427 90.6924 26.1307 90.7777 26.344C90.8631 26.1307 90.9697 25.848 91.0977 25.496C91.2257 25.1333 91.3644 24.7493 91.5137 24.344C91.6631 23.9387 91.8071 23.5547 91.9457 23.192C92.0844 22.8187 92.2017 22.504 92.2977 22.248C92.3937 21.992 92.4524 21.8373 92.4737 21.784C92.5484 21.5707 92.7031 21.464 92.9377 21.464H93.8657C94.0577 21.464 94.2657 21.464 94.4897 21.464C94.7244 21.4533 94.9377 21.448 95.1297 21.448C95.3324 21.4373 95.4711 21.432 95.5457 21.432C95.7057 21.432 95.7857 21.5173 95.7857 21.688C95.7857 21.8693 95.7057 21.96 95.5457 21.96C95.1511 21.96 94.9111 22.0347 94.8257 22.184C94.7404 22.3333 94.6977 22.5627 94.6977 22.872V27.56C94.6977 27.8587 94.7457 28.088 94.8417 28.248C94.9484 28.3973 95.1991 28.472 95.5937 28.472C95.7537 28.472 95.8337 28.5573 95.8337 28.728C95.8337 28.9093 95.7537 29 95.5937 29C95.5191 29 95.3751 28.9947 95.1617 28.984C94.9591 28.9733 94.7404 28.968 94.5057 28.968C94.2711 28.9573 94.0577 28.952 93.8657 28.952C93.5884 28.952 93.2844 28.9627 92.9537 28.984C92.6231 28.9947 92.3991 29 92.2817 29C92.1217 29 92.0417 28.9093 92.0417 28.728C92.0417 28.5573 92.1217 28.472 92.2817 28.472C92.5697 28.472 92.7564 28.3973 92.8417 28.248C92.9377 28.088 92.9857 27.848 92.9857 27.528V22.168C92.9857 22.1253 92.9697 22.104 92.9377 22.104C92.9057 22.104 92.8844 22.12 92.8737 22.152C92.8737 22.1733 92.8151 22.344 92.6977 22.664C92.5804 22.984 92.4311 23.3893 92.2497 23.88C92.0684 24.36 91.8711 24.8773 91.6577 25.432C91.4551 25.976 91.2631 26.4987 91.0817 27C90.9004 27.4907 90.7457 27.9013 90.6177 28.232C90.5004 28.5627 90.4311 28.7493 90.4097 28.792C90.3564 28.9093 90.2817 28.968 90.1857 28.968C90.0897 28.968 90.0151 28.9093 89.9617 28.792C89.9511 28.7707 89.8871 28.6053 89.7697 28.296C89.6524 27.976 89.5031 27.576 89.3217 27.096C89.1404 26.616 88.9484 26.104 88.7457 25.56C88.5431 25.016 88.3457 24.504 88.1537 24.024C87.9724 23.544 87.8231 23.1547 87.7057 22.856C87.5991 22.5467 87.5404 22.3867 87.5297 22.376C87.5191 22.3547 87.4977 22.3493 87.4657 22.36C87.4444 22.36 87.4337 22.376 87.4337 22.408V27.544C87.4337 27.8533 87.5191 28.088 87.6897 28.248C87.8604 28.3973 88.0684 28.472 88.3137 28.472C88.4844 28.472 88.5697 28.5573 88.5697 28.728C88.5697 28.9093 88.4844 29 88.3137 29C88.2071 29 88.0631 28.9947 87.8817 28.984C87.7111 28.9627 87.4871 28.952 87.2097 28.952C86.9324 28.952 86.6711 28.9627 86.4257 28.984C86.1911 28.9947 86.0151 29 85.8977 29Z" fill="#060606"/>
<path d="M30.924 35.03C30.612 35.03 30.332 34.962 30.084 34.826C29.84 34.69 29.648 34.5 29.508 34.256C29.368 34.008 29.298 33.73 29.298 33.422C29.298 33.114 29.368 32.838 29.508 32.594C29.648 32.35 29.84 32.16 30.084 32.024C30.332 31.888 30.612 31.82 30.924 31.82C31.196 31.82 31.438 31.874 31.65 31.982C31.866 32.086 32.036 32.24 32.16 32.444L31.842 32.66C31.738 32.504 31.606 32.388 31.446 32.312C31.286 32.232 31.112 32.192 30.924 32.192C30.696 32.192 30.49 32.244 30.306 32.348C30.126 32.448 29.984 32.592 29.88 32.78C29.78 32.968 29.73 33.182 29.73 33.422C29.73 33.666 29.78 33.882 29.88 34.07C29.984 34.254 30.126 34.398 30.306 34.502C30.49 34.602 30.696 34.652 30.924 34.652C31.112 34.652 31.286 34.614 31.446 34.538C31.606 34.462 31.738 34.346 31.842 34.19L32.16 34.406C32.036 34.61 31.866 34.766 31.65 34.874C31.434 34.978 31.192 35.03 30.924 35.03ZM32.9849 31.844H33.4109V35H32.9849V31.844ZM33.2009 31.154C33.1129 31.154 33.0389 31.124 32.9789 31.064C32.9189 31.004 32.8889 30.932 32.8889 30.848C32.8889 30.768 32.9189 30.698 32.9789 30.638C33.0389 30.578 33.1129 30.548 33.2009 30.548C33.2889 30.548 33.3629 30.578 33.4229 30.638C33.4829 30.694 33.5129 30.762 33.5129 30.842C33.5129 30.93 33.4829 31.004 33.4229 31.064C33.3629 31.124 33.2889 31.154 33.2009 31.154ZM38.1535 31.844V35H37.7635V32.504L36.4855 34.616H36.2935L35.0155 32.498V35H34.6255V31.844H35.0575L36.3955 34.118L37.7575 31.844H38.1535ZM40.7038 34.652C40.8998 34.652 41.0798 34.618 41.2438 34.55C41.4118 34.478 41.5538 34.374 41.6698 34.238L41.9098 34.514C41.7698 34.682 41.5958 34.81 41.3878 34.898C41.1798 34.986 40.9498 35.03 40.6978 35.03C40.3738 35.03 40.0858 34.962 39.8338 34.826C39.5818 34.686 39.3858 34.494 39.2458 34.25C39.1058 34.006 39.0358 33.73 39.0358 33.422C39.0358 33.114 39.1018 32.838 39.2338 32.594C39.3698 32.35 39.5558 32.16 39.7918 32.024C40.0278 31.888 40.2958 31.82 40.5958 31.82C40.8758 31.82 41.1278 31.884 41.3518 32.012C41.5798 32.14 41.7598 32.318 41.8918 32.546C42.0278 32.774 42.0998 33.034 42.1078 33.326L39.5158 33.83C39.5958 34.086 39.7398 34.288 39.9478 34.436C40.1598 34.58 40.4118 34.652 40.7038 34.652ZM40.5958 32.186C40.3758 32.186 40.1778 32.238 40.0018 32.342C39.8298 32.442 39.6938 32.584 39.5938 32.768C39.4978 32.948 39.4498 33.156 39.4498 33.392C39.4498 33.452 39.4518 33.496 39.4558 33.524L41.6818 33.092C41.6338 32.828 41.5118 32.612 41.3158 32.444C41.1198 32.272 40.8798 32.186 40.5958 32.186ZM45.7649 31.844V35H45.3569V34.424C45.2449 34.616 45.0909 34.766 44.8949 34.874C44.6989 34.978 44.4749 35.03 44.2229 35.03C43.8069 35.03 43.4789 34.916 43.2389 34.688C43.0029 34.456 42.8849 34.118 42.8849 33.674V31.844H43.3109V33.632C43.3109 33.964 43.3929 34.216 43.5569 34.388C43.7209 34.56 43.9569 34.646 44.2649 34.646C44.5969 34.646 44.8589 34.546 45.0509 34.346C45.2429 34.142 45.3389 33.86 45.3389 33.5V31.844H45.7649ZM44.3249 31.394C44.0529 31.394 43.8369 31.326 43.6769 31.19C43.5169 31.054 43.4349 30.862 43.4309 30.614H43.7369C43.7409 30.77 43.7969 30.896 43.9049 30.992C44.0129 31.084 44.1529 31.13 44.3249 31.13C44.4969 31.13 44.6369 31.084 44.7449 30.992C44.8569 30.896 44.9149 30.77 44.9189 30.614H45.2249C45.2209 30.862 45.1369 31.054 44.9729 31.19C44.8129 31.326 44.5969 31.394 44.3249 31.394ZM46.9771 31.844H47.4031V33.242H49.3891V31.844H49.8151V35H49.3891V33.608H47.4031V35H46.9771V31.844ZM53.8939 31.844V35H53.4859V34.376C53.3579 34.588 53.1879 34.75 52.9759 34.862C52.7679 34.974 52.5319 35.03 52.2679 35.03C51.9719 35.03 51.7039 34.962 51.4639 34.826C51.2239 34.69 51.0359 34.5 50.8999 34.256C50.7639 34.012 50.6959 33.734 50.6959 33.422C50.6959 33.11 50.7639 32.832 50.8999 32.588C51.0359 32.344 51.2239 32.156 51.4639 32.024C51.7039 31.888 51.9719 31.82 52.2679 31.82C52.5239 31.82 52.7539 31.874 52.9579 31.982C53.1659 32.086 53.3359 32.24 53.4679 32.444V31.844H53.8939ZM52.3039 34.652C52.5239 34.652 52.7219 34.602 52.8979 34.502C53.0779 34.398 53.2179 34.252 53.3179 34.064C53.4219 33.876 53.4739 33.662 53.4739 33.422C53.4739 33.182 53.4219 32.968 53.3179 32.78C53.2179 32.592 53.0779 32.448 52.8979 32.348C52.7219 32.244 52.5239 32.192 52.3039 32.192C52.0799 32.192 51.8779 32.244 51.6979 32.348C51.5219 32.448 51.3819 32.592 51.2779 32.78C51.1779 32.968 51.1279 33.182 51.1279 33.422C51.1279 33.662 51.1779 33.876 51.2779 34.064C51.3819 34.252 51.5219 34.398 51.6979 34.502C51.8779 34.602 52.0799 34.652 52.3039 34.652ZM57.9826 35.03C57.6706 35.03 57.3906 34.962 57.1426 34.826C56.8986 34.69 56.7066 34.5 56.5666 34.256C56.4266 34.008 56.3566 33.73 56.3566 33.422C56.3566 33.114 56.4266 32.838 56.5666 32.594C56.7066 32.35 56.8986 32.16 57.1426 32.024C57.3906 31.888 57.6706 31.82 57.9826 31.82C58.2546 31.82 58.4966 31.874 58.7086 31.982C58.9246 32.086 59.0946 32.24 59.2186 32.444L58.9006 32.66C58.7966 32.504 58.6646 32.388 58.5046 32.312C58.3446 32.232 58.1706 32.192 57.9826 32.192C57.7546 32.192 57.5486 32.244 57.3646 32.348C57.1846 32.448 57.0426 32.592 56.9386 32.78C56.8386 32.968 56.7886 33.182 56.7886 33.422C56.7886 33.666 56.8386 33.882 56.9386 34.07C57.0426 34.254 57.1846 34.398 57.3646 34.502C57.5486 34.602 57.7546 34.652 57.9826 34.652C58.1706 34.652 58.3446 34.614 58.5046 34.538C58.6646 34.462 58.7966 34.346 58.9006 34.19L59.2186 34.406C59.0946 34.61 58.9246 34.766 58.7086 34.874C58.4926 34.978 58.2506 35.03 57.9826 35.03ZM63.9795 31.82C64.3755 31.82 64.6855 31.934 64.9095 32.162C65.1375 32.39 65.2515 32.726 65.2515 33.17V35H64.8255V33.212C64.8255 32.884 64.7455 32.634 64.5855 32.462C64.4295 32.29 64.2075 32.204 63.9195 32.204C63.5915 32.204 63.3335 32.306 63.1455 32.51C62.9575 32.71 62.8635 32.988 62.8635 33.344V35H62.4375V33.212C62.4375 32.884 62.3575 32.634 62.1975 32.462C62.0415 32.29 61.8175 32.204 61.5255 32.204C61.2015 32.204 60.9435 32.306 60.7515 32.51C60.5635 32.71 60.4695 32.988 60.4695 33.344V35H60.0435V31.844H60.4515V32.42C60.5635 32.228 60.7195 32.08 60.9195 31.976C61.1195 31.872 61.3495 31.82 61.6095 31.82C61.8735 31.82 62.1015 31.876 62.2935 31.988C62.4895 32.1 62.6355 32.266 62.7315 32.486C62.8475 32.278 63.0135 32.116 63.2295 32C63.4495 31.88 63.6995 31.82 63.9795 31.82ZM67.6678 35.03C67.3638 35.03 67.0898 34.962 66.8458 34.826C66.6018 34.686 66.4098 34.494 66.2698 34.25C66.1298 34.006 66.0598 33.73 66.0598 33.422C66.0598 33.114 66.1298 32.838 66.2698 32.594C66.4098 32.35 66.6018 32.16 66.8458 32.024C67.0898 31.888 67.3638 31.82 67.6678 31.82C67.9718 31.82 68.2458 31.888 68.4898 32.024C68.7338 32.16 68.9238 32.35 69.0598 32.594C69.1998 32.838 69.2698 33.114 69.2698 33.422C69.2698 33.73 69.1998 34.006 69.0598 34.25C68.9238 34.494 68.7338 34.686 68.4898 34.826C68.2458 34.962 67.9718 35.03 67.6678 35.03ZM67.6678 34.652C67.8918 34.652 68.0918 34.602 68.2678 34.502C68.4478 34.398 68.5878 34.252 68.6878 34.064C68.7878 33.876 68.8378 33.662 68.8378 33.422C68.8378 33.182 68.7878 32.968 68.6878 32.78C68.5878 32.592 68.4478 32.448 68.2678 32.348C68.0918 32.244 67.8918 32.192 67.6678 32.192C67.4438 32.192 67.2418 32.244 67.0618 32.348C66.8858 32.448 66.7458 32.592 66.6418 32.78C66.5418 32.968 66.4918 33.182 66.4918 33.422C66.4918 33.662 66.5418 33.876 66.6418 34.064C66.7458 34.252 66.8858 34.398 67.0618 34.502C67.2418 34.602 67.4438 34.652 67.6678 34.652ZM73.7082 31.844V35H73.3182V32.504L72.0402 34.616H71.8482L70.5702 32.498V35H70.1802V31.844H70.6122L71.9502 34.118L73.3122 31.844H73.7082ZM77.7885 31.844V35H77.3805V34.376C77.2525 34.588 77.0825 34.75 76.8705 34.862C76.6625 34.974 76.4265 35.03 76.1625 35.03C75.8665 35.03 75.5985 34.962 75.3585 34.826C75.1185 34.69 74.9305 34.5 74.7945 34.256C74.6585 34.012 74.5905 33.734 74.5905 33.422C74.5905 33.11 74.6585 32.832 74.7945 32.588C74.9305 32.344 75.1185 32.156 75.3585 32.024C75.5985 31.888 75.8665 31.82 76.1625 31.82C76.4185 31.82 76.6485 31.874 76.8525 31.982C77.0605 32.086 77.2305 32.24 77.3625 32.444V31.844H77.7885ZM76.1985 34.652C76.4185 34.652 76.6165 34.602 76.7925 34.502C76.9725 34.398 77.1125 34.252 77.2125 34.064C77.3165 33.876 77.3685 33.662 77.3685 33.422C77.3685 33.182 77.3165 32.968 77.2125 32.78C77.1125 32.592 76.9725 32.448 76.7925 32.348C76.6165 32.244 76.4185 32.192 76.1985 32.192C75.9745 32.192 75.7725 32.244 75.5925 32.348C75.4165 32.448 75.2765 32.592 75.1725 32.78C75.0725 32.968 75.0225 33.182 75.0225 33.422C75.0225 33.662 75.0725 33.876 75.1725 34.064C75.2765 34.252 75.4165 34.398 75.5925 34.502C75.7725 34.602 75.9745 34.652 76.1985 34.652ZM82.9229 31.82C83.3189 31.82 83.6289 31.934 83.8529 32.162C84.0809 32.39 84.1949 32.726 84.1949 33.17V35H83.7689V33.212C83.7689 32.884 83.6889 32.634 83.5289 32.462C83.3729 32.29 83.1509 32.204 82.8629 32.204C82.5349 32.204 82.2769 32.306 82.0889 32.51C81.9009 32.71 81.8069 32.988 81.8069 33.344V35H81.3809V33.212C81.3809 32.884 81.3009 32.634 81.1409 32.462C80.9849 32.29 80.7609 32.204 80.4689 32.204C80.1449 32.204 79.8869 32.306 79.6949 32.51C79.5069 32.71 79.4129 32.988 79.4129 33.344V35H78.9869V31.844H79.3949V32.42C79.5069 32.228 79.6629 32.08 79.8629 31.976C80.0629 31.872 80.2929 31.82 80.5529 31.82C80.8169 31.82 81.0449 31.876 81.2369 31.988C81.4329 32.1 81.5789 32.266 81.6749 32.486C81.7909 32.278 81.9569 32.116 82.1729 32C82.3929 31.88 82.6429 31.82 82.9229 31.82ZM86.6111 35.03C86.3071 35.03 86.0331 34.962 85.7891 34.826C85.5451 34.686 85.3531 34.494 85.2131 34.25C85.0731 34.006 85.0031 33.73 85.0031 33.422C85.0031 33.114 85.0731 32.838 85.2131 32.594C85.3531 32.35 85.5451 32.16 85.7891 32.024C86.0331 31.888 86.3071 31.82 86.6111 31.82C86.9151 31.82 87.1891 31.888 87.4331 32.024C87.6771 32.16 87.8671 32.35 88.0031 32.594C88.1431 32.838 88.2131 33.114 88.2131 33.422C88.2131 33.73 88.1431 34.006 88.0031 34.25C87.8671 34.494 87.6771 34.686 87.4331 34.826C87.1891 34.962 86.9151 35.03 86.6111 35.03ZM86.6111 34.652C86.8351 34.652 87.0351 34.602 87.2111 34.502C87.3911 34.398 87.5311 34.252 87.6311 34.064C87.7311 33.876 87.7811 33.662 87.7811 33.422C87.7811 33.182 87.7311 32.968 87.6311 32.78C87.5311 32.592 87.3911 32.448 87.2111 32.348C87.0351 32.244 86.8351 32.192 86.6111 32.192C86.3871 32.192 86.1851 32.244 86.0051 32.348C85.8291 32.448 85.6891 32.592 85.5851 32.78C85.4851 32.968 85.4351 33.182 85.4351 33.422C85.4351 33.662 85.4851 33.876 85.5851 34.064C85.6891 34.252 85.8291 34.398 86.0051 34.502C86.1851 34.602 86.3871 34.652 86.6111 34.652ZM91.686 31.844V35H91.26V32.222H89.748L89.706 33.002C89.674 33.658 89.598 34.162 89.478 34.514C89.358 34.866 89.144 35.042 88.836 35.042C88.752 35.042 88.65 35.026 88.53 34.994L88.56 34.628C88.632 34.644 88.682 34.652 88.71 34.652C88.874 34.652 88.998 34.576 89.082 34.424C89.166 34.272 89.222 34.084 89.25 33.86C89.278 33.636 89.302 33.34 89.322 32.972L89.376 31.844H91.686ZM94.199 35.03C93.895 35.03 93.621 34.962 93.377 34.826C93.133 34.686 92.941 34.494 92.801 34.25C92.661 34.006 92.591 33.73 92.591 33.422C92.591 33.114 92.661 32.838 92.801 32.594C92.941 32.35 93.133 32.16 93.377 32.024C93.621 31.888 93.895 31.82 94.199 31.82C94.503 31.82 94.777 31.888 95.021 32.024C95.265 32.16 95.455 32.35 95.591 32.594C95.731 32.838 95.801 33.114 95.801 33.422C95.801 33.73 95.731 34.006 95.591 34.25C95.455 34.494 95.265 34.686 95.021 34.826C94.777 34.962 94.503 35.03 94.199 35.03ZM94.199 34.652C94.423 34.652 94.623 34.602 94.799 34.502C94.979 34.398 95.119 34.252 95.219 34.064C95.319 33.876 95.369 33.662 95.369 33.422C95.369 33.182 95.319 32.968 95.219 32.78C95.119 32.592 94.979 32.448 94.799 32.348C94.623 32.244 94.423 32.192 94.199 32.192C93.975 32.192 93.773 32.244 93.593 32.348C93.417 32.448 93.277 32.592 93.173 32.78C93.073 32.968 93.023 33.182 93.023 33.422C93.023 33.662 93.073 33.876 93.173 34.064C93.277 34.252 93.417 34.398 93.593 34.502C93.773 34.602 93.975 34.652 94.199 34.652ZM98.9435 32.222H97.1375V35H96.7115V31.844H98.9435V32.222ZM99.5591 31.844H99.9851V35H99.5591V31.844ZM99.7751 31.154C99.6871 31.154 99.6131 31.124 99.5531 31.064C99.4931 31.004 99.4631 30.932 99.4631 30.848C99.4631 30.768 99.4931 30.698 99.5531 30.638C99.6131 30.578 99.6871 30.548 99.7751 30.548C99.8631 30.548 99.9371 30.578 99.9971 30.638C100.057 30.694 100.087 30.762 100.087 30.842C100.087 30.93 100.057 31.004 99.9971 31.064C99.9371 31.124 99.8631 31.154 99.7751 31.154ZM103.624 31.844V35H103.234V33.956H102.244H102.124L101.392 35H100.93L101.716 33.896C101.472 33.828 101.284 33.712 101.152 33.548C101.02 33.384 100.954 33.176 100.954 32.924C100.954 32.572 101.074 32.304 101.314 32.12C101.554 31.936 101.882 31.844 102.298 31.844H103.624ZM101.386 32.936C101.386 33.404 101.684 33.638 102.28 33.638H103.234V32.222H102.31C101.694 32.222 101.386 32.46 101.386 32.936Z" fill="#060606"/>
</svg>
