<svg width="202" height="91" viewBox="0 0 202 91" fill="none" xmlns="http://www.w3.org/2000/svg">
<path d="M47.2658 63.9761C44.06 64.7159 37.2046 68.4641 35.4291 77.5389C33.6536 86.6137 27.949 89.2112 25.3186 89.3756" stroke="white" stroke-width="2" stroke-linecap="round" stroke-linejoin="round"/>
<path d="M46.2792 15.3964C43.1556 16.3828 35.9221 17.3198 31.9766 13.177C27.0446 7.99845 15.4546 -3.09843 6.33045 2.57331C-2.79366 8.24505 0.412135 25.5068 11.2624 35.8639C19.8542 44.0652 17.6739 79.0185 19.8933 83.9504C20.8815 86.1464 23.8389 88.1426 26.7981 83.2106" stroke="white" stroke-width="2" stroke-linecap="round" stroke-linejoin="round"/>
<path d="M62.3081 8.73828C51.2112 23.5341 34.4426 27.2331 27.7844 15.3964" stroke="white" stroke-width="2" stroke-linecap="round" stroke-linejoin="round"/>
<path d="M25.2778 53C25.0004 53 24.8618 52.8293 24.8618 52.488C24.8618 52.2107 25.0004 52.072 25.2778 52.072C26.1738 52.072 26.8991 51.752 27.4538 51.112C28.0084 50.4507 28.2858 49.3413 28.2858 47.784V32.872C28.2858 32.104 28.1044 31.5493 27.7418 31.208C27.4004 30.8453 26.7924 30.664 25.9178 30.664C25.6404 30.664 25.5018 30.5147 25.5018 30.216C25.5018 29.9173 25.6404 29.768 25.9178 29.768C26.1098 29.768 26.7711 29.7787 27.9018 29.8C29.0324 29.8213 30.3764 29.832 31.9338 29.832C32.6591 29.832 33.1178 30.1093 33.3098 30.664C33.3524 30.7707 33.4698 31.112 33.6618 31.688C33.8751 32.264 34.1311 32.9893 34.4298 33.864C34.7498 34.7387 35.0911 35.6987 35.4538 36.744C35.8164 37.768 36.1791 38.792 36.5418 39.816C36.9258 40.84 37.2778 41.8 37.5978 42.696C37.9178 43.5707 38.1844 44.3067 38.3978 44.904C38.6111 45.5013 38.7391 45.864 38.7818 45.992C38.8671 45.8 39.0484 45.3307 39.3258 44.584C39.6031 43.816 39.9338 42.888 40.3178 41.8C40.7018 40.6907 41.1071 39.5387 41.5338 38.344C41.9604 37.1493 42.3551 36.008 42.7178 34.92C43.1018 33.832 43.4218 32.9147 43.6778 32.168C43.9338 31.4 44.0831 30.9413 44.1258 30.792C44.3178 30.152 44.7871 29.832 45.5338 29.832C47.0911 29.832 48.3924 29.8213 49.4378 29.8C50.4831 29.7787 51.0804 29.768 51.2298 29.768C51.5071 29.768 51.6458 29.9173 51.6458 30.216C51.6458 30.5147 51.5071 30.664 51.2298 30.664C50.4404 30.664 49.8858 30.8347 49.5658 31.176C49.2671 31.496 49.1178 31.9653 49.1178 32.584V50.024C49.1178 50.7067 49.2458 51.2187 49.5018 51.56C49.7578 51.9013 50.2698 52.072 51.0378 52.072C51.3151 52.072 51.4538 52.2107 51.4538 52.488C51.4538 52.8293 51.3151 53 51.0378 53C50.8244 53 50.3978 52.9893 49.7578 52.968C49.1391 52.9253 48.3391 52.904 47.3578 52.904C46.7391 52.904 46.0884 52.9147 45.4058 52.936C44.7444 52.936 44.1684 52.9467 43.6778 52.968C43.1871 52.9893 42.8671 53 42.7178 53C42.3978 53 42.2378 52.8293 42.2378 52.488C42.2378 52.2107 42.3978 52.072 42.7178 52.072C43.6991 52.072 44.3711 51.9227 44.7338 51.624C45.0964 51.304 45.2778 50.7707 45.2778 50.024V31.208C43.8911 35.24 42.7178 38.6 41.7578 41.288C40.8191 43.976 40.0618 46.1093 39.4858 47.688C38.9311 49.2453 38.5258 50.3547 38.2698 51.016C38.0351 51.6773 37.9178 52.008 37.9178 52.008C37.8538 52.1787 37.7898 52.2853 37.7258 52.328C37.6831 52.3493 37.6084 52.36 37.5018 52.36C37.3311 52.36 37.2031 52.264 37.1178 52.072C37.0964 52.0507 36.9684 51.7307 36.7338 51.112C36.4991 50.472 36.1791 49.64 35.7738 48.616C35.3898 47.592 34.9524 46.4507 34.4618 45.192C33.9711 43.9333 33.4698 42.6533 32.9578 41.352C32.4671 40.0293 31.9871 38.7707 31.5178 37.576C31.0484 36.36 30.6324 35.2933 30.2698 34.376C29.9071 33.4373 29.6404 32.7333 29.4698 32.264V47.752C29.4698 49.3733 29.7898 50.504 30.4298 51.144C31.0698 51.7627 31.8164 52.072 32.6698 52.072C32.9898 52.072 33.1498 52.2107 33.1498 52.488C33.1498 52.8293 32.9898 53 32.6698 53C32.4564 53 32.0191 52.9893 31.3578 52.968C30.7178 52.9253 29.9284 52.904 28.9898 52.904C27.8804 52.904 27.0378 52.9253 26.4618 52.968C25.9071 52.9893 25.5124 53 25.2778 53ZM60.8998 53.384C58.4678 53.384 56.5584 52.7227 55.1718 51.4C53.8064 50.0773 53.1238 48.1787 53.1238 45.704C53.1238 44.1467 53.4331 42.7493 54.0518 41.512C54.6704 40.2747 55.5451 39.2933 56.6758 38.568C57.8278 37.8427 59.1611 37.48 60.6758 37.48C61.8278 37.48 62.8304 37.704 63.6838 38.152C64.5371 38.6 65.2411 39.1867 65.7958 39.912C66.3504 40.6373 66.7664 41.4267 67.0438 42.28C67.3211 43.112 67.4598 43.9333 67.4598 44.744C67.4598 45.0853 67.2464 45.256 66.8198 45.256H56.8998C56.8571 46.8773 56.9958 48.1467 57.3158 49.064C57.6571 49.9813 58.1584 50.6213 58.8198 50.984C59.4811 51.3467 60.2811 51.528 61.2198 51.528C62.3078 51.528 63.2784 51.2933 64.1318 50.824C65.0064 50.3547 65.7211 49.768 66.2758 49.064C66.5104 48.7867 66.7771 48.744 67.0758 48.936C67.3744 49.128 67.4171 49.384 67.2038 49.704C66.7771 50.344 66.2864 50.9413 65.7318 51.496C65.1984 52.0507 64.5371 52.5093 63.7478 52.872C62.9798 53.2133 62.0304 53.384 60.8998 53.384ZM56.9638 44.008H63.6198C63.6624 42.984 63.5878 42.0667 63.3958 41.256C63.2251 40.4453 62.9158 39.8053 62.4678 39.336C62.0411 38.8667 61.4224 38.632 60.6118 38.632C59.5878 38.632 58.7878 39.1227 58.2118 40.104C57.6358 41.064 57.2198 42.3653 56.9638 44.008ZM70.222 53C69.8807 53 69.71 52.8187 69.71 52.456C69.71 52.1147 69.8807 51.944 70.222 51.944C71.0327 51.944 71.5553 51.7947 71.79 51.496C72.046 51.176 72.174 50.696 72.174 50.056V40.808C72.174 40.168 72.046 39.6987 71.79 39.4C71.5553 39.08 71.0327 38.92 70.222 38.92C69.8807 38.92 69.71 38.7387 69.71 38.376C69.71 38.0347 69.8807 37.864 70.222 37.864C70.3713 37.864 70.7447 37.8747 71.342 37.896C71.9393 37.896 72.654 37.9067 73.486 37.928C74.3393 37.9493 75.214 37.96 76.11 37.96C76.9847 37.96 77.87 37.9493 78.766 37.928C79.6833 37.9067 80.462 37.896 81.102 37.896C81.742 37.8747 82.0833 37.864 82.126 37.864C82.382 37.864 82.5633 37.9067 82.67 37.992C82.7767 38.056 82.8407 38.216 82.862 38.472C82.862 38.6213 82.862 38.8987 82.862 39.304C82.8833 39.688 82.894 40.104 82.894 40.552C82.894 41 82.894 41.4053 82.894 41.768C82.9153 42.1093 82.926 42.312 82.926 42.376C82.926 42.6533 82.766 42.8347 82.446 42.92C82.126 43.0053 81.902 42.9307 81.774 42.696C81.5393 42.184 81.2513 41.64 80.91 41.064C80.5687 40.488 80.142 40.008 79.63 39.624C79.118 39.2187 78.4887 39.016 77.742 39.016H76.814C76.366 39.016 76.046 39.1227 75.854 39.336C75.6833 39.5493 75.598 39.9013 75.598 40.392V50.056C75.598 50.696 75.7047 51.176 75.918 51.496C76.1527 51.7947 76.6113 51.944 77.294 51.944C77.6353 51.944 77.806 52.1147 77.806 52.456C77.806 52.8187 77.6353 53 77.294 53C77.1447 53 76.8673 52.9893 76.462 52.968C76.0567 52.9467 75.6193 52.936 75.15 52.936C74.702 52.9147 74.286 52.904 73.902 52.904C73.5393 52.904 73.0913 52.9147 72.558 52.936C72.046 52.936 71.566 52.9467 71.118 52.968C70.6913 52.9893 70.3927 53 70.222 53ZM89.955 53.384C88.5683 53.384 87.4163 53.064 86.499 52.424C85.603 51.784 85.155 50.7173 85.155 49.224C85.155 47.9653 85.539 46.9307 86.307 46.12C87.0963 45.288 88.195 44.68 89.603 44.296C91.011 43.8907 92.6537 43.6987 94.531 43.72V42.472C94.531 41.32 94.3283 40.4133 93.923 39.752C93.5177 39.0693 92.867 38.728 91.971 38.728C91.139 38.728 90.5097 38.888 90.083 39.208C89.6563 39.5067 89.5497 39.9013 89.763 40.392C90.1043 41.1173 90.0937 41.768 89.731 42.344C89.3683 42.8987 88.7497 43.176 87.875 43.176C87.3417 43.176 86.8937 43.0053 86.531 42.664C86.1683 42.3013 85.987 41.8 85.987 41.16C85.987 40.52 86.2537 39.9227 86.787 39.368C87.3203 38.8133 88.0457 38.3653 88.963 38.024C89.9017 37.6613 90.9577 37.48 92.131 37.48C94.0723 37.48 95.5337 37.9067 96.515 38.76C97.4963 39.6133 97.987 40.7867 97.987 42.28V49.064C97.987 49.9173 98.0723 50.472 98.243 50.728C98.435 50.9627 98.6697 51.08 98.947 51.08C99.1603 51.08 99.3417 51.048 99.491 50.984C99.6617 50.8987 99.7897 50.8133 99.875 50.728C100.11 50.4933 100.344 50.504 100.579 50.76C100.686 50.8667 100.728 50.984 100.707 51.112C100.686 51.24 100.632 51.368 100.547 51.496C100.248 51.9867 99.875 52.4027 99.427 52.744C99.0003 53.064 98.4777 53.224 97.859 53.224C97.0697 53.224 96.3977 53.0213 95.843 52.616C95.3097 52.2107 94.9363 51.5813 94.723 50.728C94.339 51.432 93.7843 52.0507 93.059 52.584C92.355 53.1173 91.3203 53.384 89.955 53.384ZM91.555 51.464C92.1737 51.464 92.707 51.2933 93.155 50.952C93.603 50.5893 93.9443 50.1627 94.179 49.672C94.4137 49.1813 94.531 48.712 94.531 48.264V44.84C92.8457 44.7973 91.491 45.064 90.467 45.64C89.443 46.216 88.931 47.2293 88.931 48.68C88.931 49.512 89.091 50.1307 89.411 50.536C89.731 50.92 90.0937 51.176 90.499 51.304C90.9257 51.4107 91.2777 51.464 91.555 51.464ZM122.931 53.384C121.438 53.384 120.019 53.1387 118.675 52.648C117.352 52.136 116.168 51.3787 115.123 50.376C114.099 49.3733 113.288 48.1253 112.691 46.632C112.115 45.1387 111.827 43.4 111.827 41.416C111.827 39.4747 112.126 37.7573 112.723 36.264C113.32 34.7707 114.131 33.512 115.155 32.488C116.2 31.464 117.384 30.696 118.707 30.184C120.051 29.6507 121.47 29.384 122.963 29.384C124.072 29.384 125.118 29.4693 126.099 29.64C127.102 29.7893 127.966 29.9707 128.691 30.184C129.416 30.376 129.95 30.536 130.291 30.664C130.611 30.7707 130.771 30.984 130.771 31.304C130.792 31.496 130.814 31.7947 130.835 32.2C130.856 32.6053 130.878 33.0427 130.899 33.512C130.92 33.9813 130.942 34.3973 130.963 34.76C130.984 35.1227 130.995 35.3467 130.995 35.432C130.995 35.5173 130.942 35.6133 130.835 35.72C130.75 35.8053 130.632 35.848 130.483 35.848C130.462 35.848 130.43 35.848 130.387 35.848C130.216 35.848 130.067 35.8373 129.939 35.816C129.832 35.7733 129.758 35.6667 129.715 35.496C129.523 34.7067 129.16 33.928 128.627 33.16C128.094 32.392 127.358 31.752 126.419 31.24C125.502 30.728 124.339 30.472 122.931 30.472C121.886 30.472 120.862 30.856 119.859 31.624C118.856 32.3707 118.024 33.544 117.363 35.144C116.702 36.744 116.371 38.8347 116.371 41.416C116.371 43.4 116.574 45.0747 116.979 46.44C117.384 47.8053 117.907 48.9147 118.547 49.768C119.208 50.6213 119.923 51.24 120.691 51.624C121.459 52.008 122.216 52.2 122.963 52.2C124.051 52.2 124.99 52.0293 125.779 51.688C126.59 51.3253 127.272 50.8667 127.827 50.312C128.382 49.7573 128.83 49.1493 129.171 48.488C129.512 47.8267 129.779 47.1973 129.971 46.6C130.014 46.4293 130.11 46.3333 130.259 46.312C130.408 46.2907 130.558 46.28 130.707 46.28C130.878 46.28 131.006 46.3333 131.091 46.44C131.198 46.5253 131.251 46.6213 131.251 46.728C131.251 46.792 131.24 47.0267 131.219 47.432C131.219 47.816 131.208 48.2747 131.187 48.808C131.166 49.32 131.144 49.7893 131.123 50.216C131.102 50.6427 131.08 50.9093 131.059 51.016C131.016 51.336 130.803 51.6027 130.419 51.816C130.142 51.9653 129.672 52.168 129.011 52.424C128.371 52.6587 127.539 52.872 126.515 53.064C125.512 53.2773 124.318 53.384 122.931 53.384ZM136.833 53C136.513 53 136.353 52.8187 136.353 52.456C136.353 52.1147 136.513 51.944 136.833 51.944C137.665 51.944 138.251 51.7947 138.593 51.496C138.934 51.176 139.105 50.696 139.105 50.056V40.424C139.105 39.912 139.019 39.56 138.849 39.368C138.699 39.1547 138.379 39.048 137.889 39.048C137.249 39.048 136.673 39.2293 136.161 39.592C135.67 39.9333 135.254 40.36 134.913 40.872C134.571 41.3627 134.294 41.832 134.081 42.28C133.974 42.5147 133.75 42.6107 133.409 42.568C133.089 42.5253 132.929 42.3653 132.929 42.088C132.929 42.0027 132.929 41.8107 132.929 41.512C132.95 41.192 132.961 40.8293 132.961 40.424C132.982 40.0187 132.993 39.6347 132.993 39.272C133.014 38.9093 133.025 38.6533 133.025 38.504C133.025 38.248 133.078 38.0773 133.185 37.992C133.313 37.9067 133.494 37.864 133.729 37.864C133.771 37.864 133.985 37.8747 134.369 37.896C134.753 37.896 135.211 37.9067 135.745 37.928C136.278 37.928 136.79 37.9387 137.281 37.96C137.771 37.96 138.145 37.96 138.401 37.96H143.233C143.595 37.96 144.022 37.96 144.513 37.96C145.025 37.9387 145.526 37.928 146.017 37.928C146.507 37.9067 146.923 37.896 147.265 37.896C147.627 37.8747 147.83 37.864 147.873 37.864C148.107 37.864 148.278 37.9067 148.385 37.992C148.513 38.0773 148.577 38.248 148.577 38.504C148.577 38.6533 148.577 38.9093 148.577 39.272C148.598 39.6347 148.609 40.0187 148.609 40.424C148.63 40.8293 148.641 41.192 148.641 41.512C148.662 41.8107 148.673 42.0027 148.673 42.088C148.673 42.3653 148.502 42.5253 148.161 42.568C147.841 42.6107 147.627 42.5147 147.521 42.28C147.307 41.832 147.03 41.3627 146.689 40.872C146.347 40.36 145.931 39.9333 145.441 39.592C144.95 39.2293 144.374 39.048 143.713 39.048C143.243 39.048 142.923 39.1547 142.753 39.368C142.603 39.56 142.529 39.912 142.529 40.424V50.056C142.529 50.696 142.699 51.176 143.041 51.496C143.382 51.7947 143.969 51.944 144.801 51.944C145.121 51.944 145.281 52.1147 145.281 52.456C145.281 52.8187 145.121 53 144.801 53C144.651 53 144.321 52.9893 143.809 52.968C143.318 52.9467 142.795 52.936 142.241 52.936C141.686 52.9147 141.217 52.904 140.833 52.904C140.47 52.904 140.001 52.9147 139.425 52.936C138.849 52.936 138.315 52.9467 137.825 52.968C137.334 52.9893 137.003 53 136.833 53ZM158.145 53.384C156.609 53.384 155.275 53.0427 154.145 52.36C153.014 51.656 152.139 50.7067 151.521 49.512C150.902 48.3173 150.593 46.952 150.593 45.416C150.593 43.88 150.902 42.5147 151.521 41.32C152.139 40.1253 153.014 39.1867 154.145 38.504C155.275 37.8213 156.609 37.48 158.145 37.48C159.681 37.48 161.003 37.8213 162.113 38.504C163.243 39.1867 164.118 40.1253 164.737 41.32C165.355 42.5147 165.665 43.88 165.665 45.416C165.665 46.952 165.355 48.3173 164.737 49.512C164.118 50.7067 163.243 51.656 162.113 52.36C161.003 53.0427 159.681 53.384 158.145 53.384ZM158.145 52.296C159.467 52.296 160.417 51.6667 160.993 50.408C161.59 49.128 161.889 47.464 161.889 45.416C161.889 43.3893 161.59 41.7467 160.993 40.488C160.417 39.208 159.467 38.568 158.145 38.568C156.822 38.568 155.862 39.208 155.265 40.488C154.667 41.7467 154.369 43.3893 154.369 45.416C154.369 47.464 154.667 49.128 155.265 50.408C155.862 51.6667 156.822 52.296 158.145 52.296ZM168.065 53C167.745 53 167.585 52.8187 167.585 52.456C167.585 52.3067 167.628 52.1787 167.713 52.072C167.798 51.944 167.916 51.88 168.065 51.88C168.812 51.88 169.334 51.7413 169.633 51.464C169.953 51.1653 170.113 50.7173 170.113 50.12V40.744C170.113 40.2107 169.974 39.7733 169.697 39.432C169.42 39.0907 168.908 38.92 168.161 38.92C167.841 38.92 167.681 38.7387 167.681 38.376C167.681 38.0347 167.841 37.864 168.161 37.864C168.396 37.864 168.737 37.8747 169.185 37.896C169.633 37.9173 170.134 37.928 170.689 37.928H173.537C173.793 37.928 173.985 37.9813 174.113 38.088C174.241 38.1733 174.337 38.3013 174.401 38.472C174.444 38.5787 174.561 38.8987 174.753 39.432C174.945 39.944 175.18 40.5733 175.457 41.32C175.734 42.0667 176.022 42.8453 176.321 43.656C176.62 44.4667 176.897 45.2347 177.153 45.96C177.43 46.6853 177.654 47.2613 177.825 47.688C177.996 47.2613 178.209 46.696 178.465 45.992C178.721 45.2667 178.998 44.4987 179.297 43.688C179.596 42.8773 179.884 42.1093 180.161 41.384C180.438 40.6373 180.673 40.008 180.865 39.496C181.057 38.984 181.174 38.6747 181.217 38.568C181.366 38.1413 181.676 37.928 182.145 37.928H184.001C184.385 37.928 184.801 37.928 185.249 37.928C185.718 37.9067 186.145 37.896 186.529 37.896C186.934 37.8747 187.212 37.864 187.361 37.864C187.681 37.864 187.841 38.0347 187.841 38.376C187.841 38.7387 187.681 38.92 187.361 38.92C186.572 38.92 186.092 39.0693 185.921 39.368C185.75 39.6667 185.665 40.1253 185.665 40.744V50.12C185.665 50.7173 185.761 51.176 185.953 51.496C186.166 51.7947 186.668 51.944 187.457 51.944C187.777 51.944 187.937 52.1147 187.937 52.456C187.937 52.8187 187.777 53 187.457 53C187.308 53 187.02 52.9893 186.593 52.968C186.188 52.9467 185.75 52.936 185.281 52.936C184.812 52.9147 184.385 52.904 184.001 52.904C183.446 52.904 182.838 52.9253 182.177 52.968C181.516 52.9893 181.068 53 180.833 53C180.513 53 180.353 52.8187 180.353 52.456C180.353 52.1147 180.513 51.944 180.833 51.944C181.409 51.944 181.782 51.7947 181.953 51.496C182.145 51.176 182.241 50.696 182.241 50.056V39.336C182.241 39.2507 182.209 39.208 182.145 39.208C182.081 39.208 182.038 39.24 182.017 39.304C182.017 39.3467 181.9 39.688 181.665 40.328C181.43 40.968 181.132 41.7787 180.769 42.76C180.406 43.72 180.012 44.7547 179.585 45.864C179.18 46.952 178.796 47.9973 178.433 49C178.07 49.9813 177.761 50.8027 177.505 51.464C177.27 52.1253 177.132 52.4987 177.089 52.584C176.982 52.8187 176.833 52.936 176.641 52.936C176.449 52.936 176.3 52.8187 176.193 52.584C176.172 52.5413 176.044 52.2107 175.809 51.592C175.574 50.952 175.276 50.152 174.913 49.192C174.55 48.232 174.166 47.208 173.761 46.12C173.356 45.032 172.961 44.008 172.577 43.048C172.214 42.088 171.916 41.3093 171.681 40.712C171.468 40.0933 171.35 39.7733 171.329 39.752C171.308 39.7093 171.265 39.6987 171.201 39.72C171.158 39.72 171.137 39.752 171.137 39.816V50.088C171.137 50.7067 171.308 51.176 171.649 51.496C171.99 51.7947 172.406 51.944 172.897 51.944C173.238 51.944 173.409 52.1147 173.409 52.456C173.409 52.8187 173.238 53 172.897 53C172.684 53 172.396 52.9893 172.033 52.968C171.692 52.9253 171.244 52.904 170.689 52.904C170.134 52.904 169.612 52.9253 169.121 52.968C168.652 52.9893 168.3 53 168.065 53Z" fill="#060606"/>
<path d="M55.1176 66.06C54.4936 66.06 53.9336 65.924 53.4376 65.652C52.9496 65.38 52.5656 65 52.2856 64.512C52.0056 64.016 51.8656 63.46 51.8656 62.844C51.8656 62.228 52.0056 61.676 52.2856 61.188C52.5656 60.7 52.9496 60.32 53.4376 60.048C53.9336 59.776 54.4936 59.64 55.1176 59.64C55.6616 59.64 56.1456 59.748 56.5696 59.964C57.0016 60.172 57.3416 60.48 57.5896 60.888L56.9536 61.32C56.7456 61.008 56.4816 60.776 56.1616 60.624C55.8416 60.464 55.4936 60.384 55.1176 60.384C54.6616 60.384 54.2496 60.488 53.8816 60.696C53.5216 60.896 53.2376 61.184 53.0296 61.56C52.8296 61.936 52.7296 62.364 52.7296 62.844C52.7296 63.332 52.8296 63.764 53.0296 64.14C53.2376 64.508 53.5216 64.796 53.8816 65.004C54.2496 65.204 54.6616 65.304 55.1176 65.304C55.4936 65.304 55.8416 65.228 56.1616 65.076C56.4816 64.924 56.7456 64.692 56.9536 64.38L57.5896 64.812C57.3416 65.22 57.0016 65.532 56.5696 65.748C56.1376 65.956 55.6536 66.06 55.1176 66.06ZM59.2393 59.688H60.0913V66H59.2393V59.688ZM59.6713 58.308C59.4953 58.308 59.3473 58.248 59.2273 58.128C59.1073 58.008 59.0473 57.864 59.0473 57.696C59.0473 57.536 59.1073 57.396 59.2273 57.276C59.3473 57.156 59.4953 57.096 59.6713 57.096C59.8473 57.096 59.9953 57.156 60.1153 57.276C60.2353 57.388 60.2953 57.524 60.2953 57.684C60.2953 57.86 60.2353 58.008 60.1153 58.128C59.9953 58.248 59.8473 58.308 59.6713 58.308ZM69.5766 59.688V66H68.7966V61.008L66.2406 65.232H65.8566L63.3006 60.996V66H62.5206V59.688H63.3846L66.0606 64.236L68.7846 59.688H69.5766ZM74.6771 65.304C75.0691 65.304 75.4291 65.236 75.7571 65.1C76.0931 64.956 76.3771 64.748 76.6091 64.476L77.0891 65.028C76.8091 65.364 76.4611 65.62 76.0451 65.796C75.6291 65.972 75.1691 66.06 74.6651 66.06C74.0171 66.06 73.4411 65.924 72.9371 65.652C72.4331 65.372 72.0411 64.988 71.7611 64.5C71.4811 64.012 71.3411 63.46 71.3411 62.844C71.3411 62.228 71.4731 61.676 71.7371 61.188C72.0091 60.7 72.3811 60.32 72.8531 60.048C73.3251 59.776 73.8611 59.64 74.4611 59.64C75.0211 59.64 75.5251 59.768 75.9731 60.024C76.4291 60.28 76.7891 60.636 77.0531 61.092C77.3251 61.548 77.4691 62.068 77.4851 62.652L72.3011 63.66C72.4611 64.172 72.7491 64.576 73.1651 64.872C73.5891 65.16 74.0931 65.304 74.6771 65.304ZM74.4611 60.372C74.0211 60.372 73.6251 60.476 73.2731 60.684C72.9291 60.884 72.6571 61.168 72.4571 61.536C72.2651 61.896 72.1691 62.312 72.1691 62.784C72.1691 62.904 72.1731 62.992 72.1811 63.048L76.6331 62.184C76.5371 61.656 76.2931 61.224 75.9011 60.888C75.5091 60.544 75.0291 60.372 74.4611 60.372ZM84.7993 59.688V66H83.9833V64.848C83.7593 65.232 83.4513 65.532 83.0593 65.748C82.6673 65.956 82.2193 66.06 81.7153 66.06C80.8833 66.06 80.2273 65.832 79.7473 65.376C79.2753 64.912 79.0393 64.236 79.0393 63.348V59.688H79.8913V63.264C79.8913 63.928 80.0553 64.432 80.3833 64.776C80.7113 65.12 81.1833 65.292 81.7993 65.292C82.4633 65.292 82.9873 65.092 83.3713 64.692C83.7553 64.284 83.9473 63.72 83.9473 63V59.688H84.7993ZM81.9193 58.788C81.3753 58.788 80.9433 58.652 80.6233 58.38C80.3033 58.108 80.1393 57.724 80.1313 57.228H80.7433C80.7513 57.54 80.8633 57.792 81.0793 57.984C81.2953 58.168 81.5753 58.26 81.9193 58.26C82.2633 58.26 82.5433 58.168 82.7593 57.984C82.9833 57.792 83.0993 57.54 83.1073 57.228H83.7193C83.7113 57.724 83.5433 58.108 83.2153 58.38C82.8953 58.652 82.4633 58.788 81.9193 58.788ZM87.2237 59.688H88.0757V62.484H92.0477V59.688H92.8997V66H92.0477V63.216H88.0757V66H87.2237V59.688ZM101.057 59.688V66H100.241V64.752C99.9854 65.176 99.6454 65.5 99.2214 65.724C98.8054 65.948 98.3334 66.06 97.8054 66.06C97.2134 66.06 96.6774 65.924 96.1974 65.652C95.7174 65.38 95.3414 65 95.0694 64.512C94.7974 64.024 94.6614 63.468 94.6614 62.844C94.6614 62.22 94.7974 61.664 95.0694 61.176C95.3414 60.688 95.7174 60.312 96.1974 60.048C96.6774 59.776 97.2134 59.64 97.8054 59.64C98.3174 59.64 98.7774 59.748 99.1854 59.964C99.6014 60.172 99.9414 60.48 100.205 60.888V59.688H101.057ZM97.8774 65.304C98.3174 65.304 98.7134 65.204 99.0654 65.004C99.4254 64.796 99.7054 64.504 99.9054 64.128C100.113 63.752 100.217 63.324 100.217 62.844C100.217 62.364 100.113 61.936 99.9054 61.56C99.7054 61.184 99.4254 60.896 99.0654 60.696C98.7134 60.488 98.3174 60.384 97.8774 60.384C97.4294 60.384 97.0254 60.488 96.6654 60.696C96.3134 60.896 96.0334 61.184 95.8254 61.56C95.6254 61.936 95.5254 62.364 95.5254 62.844C95.5254 63.324 95.6254 63.752 95.8254 64.128C96.0334 64.504 96.3134 64.796 96.6654 65.004C97.0254 65.204 97.4294 65.304 97.8774 65.304ZM109.235 66.06C108.611 66.06 108.051 65.924 107.555 65.652C107.067 65.38 106.683 65 106.403 64.512C106.123 64.016 105.983 63.46 105.983 62.844C105.983 62.228 106.123 61.676 106.403 61.188C106.683 60.7 107.067 60.32 107.555 60.048C108.051 59.776 108.611 59.64 109.235 59.64C109.779 59.64 110.263 59.748 110.687 59.964C111.119 60.172 111.459 60.48 111.707 60.888L111.071 61.32C110.863 61.008 110.599 60.776 110.279 60.624C109.959 60.464 109.611 60.384 109.235 60.384C108.779 60.384 108.367 60.488 107.999 60.696C107.639 60.896 107.355 61.184 107.147 61.56C106.947 61.936 106.847 62.364 106.847 62.844C106.847 63.332 106.947 63.764 107.147 64.14C107.355 64.508 107.639 64.796 107.999 65.004C108.367 65.204 108.779 65.304 109.235 65.304C109.611 65.304 109.959 65.228 110.279 65.076C110.599 64.924 110.863 64.692 111.071 64.38L111.707 64.812C111.459 65.22 111.119 65.532 110.687 65.748C110.255 65.956 109.771 66.06 109.235 66.06ZM121.229 59.64C122.021 59.64 122.641 59.868 123.089 60.324C123.545 60.78 123.773 61.452 123.773 62.34V66H122.921V62.424C122.921 61.768 122.761 61.268 122.441 60.924C122.129 60.58 121.685 60.408 121.109 60.408C120.453 60.408 119.937 60.612 119.561 61.02C119.185 61.42 118.997 61.976 118.997 62.688V66H118.145V62.424C118.145 61.768 117.985 61.268 117.665 60.924C117.353 60.58 116.905 60.408 116.321 60.408C115.673 60.408 115.157 60.612 114.773 61.02C114.397 61.42 114.209 61.976 114.209 62.688V66H113.357V59.688H114.173V60.84C114.397 60.456 114.709 60.16 115.109 59.952C115.509 59.744 115.969 59.64 116.489 59.64C117.017 59.64 117.473 59.752 117.857 59.976C118.249 60.2 118.541 60.532 118.733 60.972C118.965 60.556 119.297 60.232 119.729 60C120.169 59.76 120.669 59.64 121.229 59.64ZM128.605 66.06C127.997 66.06 127.449 65.924 126.961 65.652C126.473 65.372 126.089 64.988 125.809 64.5C125.529 64.012 125.389 63.46 125.389 62.844C125.389 62.228 125.529 61.676 125.809 61.188C126.089 60.7 126.473 60.32 126.961 60.048C127.449 59.776 127.997 59.64 128.605 59.64C129.213 59.64 129.761 59.776 130.249 60.048C130.737 60.32 131.117 60.7 131.389 61.188C131.669 61.676 131.809 62.228 131.809 62.844C131.809 63.46 131.669 64.012 131.389 64.5C131.117 64.988 130.737 65.372 130.249 65.652C129.761 65.924 129.213 66.06 128.605 66.06ZM128.605 65.304C129.053 65.304 129.453 65.204 129.805 65.004C130.165 64.796 130.445 64.504 130.645 64.128C130.845 63.752 130.945 63.324 130.945 62.844C130.945 62.364 130.845 61.936 130.645 61.56C130.445 61.184 130.165 60.896 129.805 60.696C129.453 60.488 129.053 60.384 128.605 60.384C128.157 60.384 127.753 60.488 127.393 60.696C127.041 60.896 126.761 61.184 126.553 61.56C126.353 61.936 126.253 62.364 126.253 62.844C126.253 63.324 126.353 63.752 126.553 64.128C126.761 64.504 127.041 64.796 127.393 65.004C127.753 65.204 128.157 65.304 128.605 65.304ZM140.686 59.688V66H139.906V61.008L137.35 65.232H136.966L134.41 60.996V66H133.63V59.688H134.494L137.17 64.236L139.894 59.688H140.686ZM148.846 59.688V66H148.03V64.752C147.774 65.176 147.434 65.5 147.01 65.724C146.594 65.948 146.122 66.06 145.594 66.06C145.002 66.06 144.466 65.924 143.986 65.652C143.506 65.38 143.13 65 142.858 64.512C142.586 64.024 142.45 63.468 142.45 62.844C142.45 62.22 142.586 61.664 142.858 61.176C143.13 60.688 143.506 60.312 143.986 60.048C144.466 59.776 145.002 59.64 145.594 59.64C146.106 59.64 146.566 59.748 146.974 59.964C147.39 60.172 147.73 60.48 147.994 60.888V59.688H148.846ZM145.666 65.304C146.106 65.304 146.502 65.204 146.854 65.004C147.214 64.796 147.494 64.504 147.694 64.128C147.902 63.752 148.006 63.324 148.006 62.844C148.006 62.364 147.902 61.936 147.694 61.56C147.494 61.184 147.214 60.896 146.854 60.696C146.502 60.488 146.106 60.384 145.666 60.384C145.218 60.384 144.814 60.488 144.454 60.696C144.102 60.896 143.822 61.184 143.614 61.56C143.414 61.936 143.314 62.364 143.314 62.844C143.314 63.324 143.414 63.752 143.614 64.128C143.822 64.504 144.102 64.796 144.454 65.004C144.814 65.204 145.218 65.304 145.666 65.304ZM159.115 59.64C159.907 59.64 160.527 59.868 160.975 60.324C161.431 60.78 161.659 61.452 161.659 62.34V66H160.807V62.424C160.807 61.768 160.647 61.268 160.327 60.924C160.015 60.58 159.571 60.408 158.995 60.408C158.339 60.408 157.823 60.612 157.447 61.02C157.071 61.42 156.883 61.976 156.883 62.688V66H156.031V62.424C156.031 61.768 155.871 61.268 155.551 60.924C155.239 60.58 154.791 60.408 154.207 60.408C153.559 60.408 153.043 60.612 152.659 61.02C152.283 61.42 152.095 61.976 152.095 62.688V66H151.243V59.688H152.059V60.84C152.283 60.456 152.595 60.16 152.995 59.952C153.395 59.744 153.855 59.64 154.375 59.64C154.903 59.64 155.359 59.752 155.743 59.976C156.135 60.2 156.427 60.532 156.619 60.972C156.851 60.556 157.183 60.232 157.615 60C158.055 59.76 158.555 59.64 159.115 59.64ZM166.492 66.06C165.884 66.06 165.336 65.924 164.848 65.652C164.36 65.372 163.976 64.988 163.696 64.5C163.416 64.012 163.276 63.46 163.276 62.844C163.276 62.228 163.416 61.676 163.696 61.188C163.976 60.7 164.36 60.32 164.848 60.048C165.336 59.776 165.884 59.64 166.492 59.64C167.1 59.64 167.648 59.776 168.136 60.048C168.624 60.32 169.004 60.7 169.276 61.188C169.556 61.676 169.696 62.228 169.696 62.844C169.696 63.46 169.556 64.012 169.276 64.5C169.004 64.988 168.624 65.372 168.136 65.652C167.648 65.924 167.1 66.06 166.492 66.06ZM166.492 65.304C166.94 65.304 167.34 65.204 167.692 65.004C168.052 64.796 168.332 64.504 168.532 64.128C168.732 63.752 168.832 63.324 168.832 62.844C168.832 62.364 168.732 61.936 168.532 61.56C168.332 61.184 168.052 60.896 167.692 60.696C167.34 60.488 166.94 60.384 166.492 60.384C166.044 60.384 165.64 60.488 165.28 60.696C164.928 60.896 164.648 61.184 164.44 61.56C164.24 61.936 164.14 62.364 164.14 62.844C164.14 63.324 164.24 63.752 164.44 64.128C164.648 64.504 164.928 64.796 165.28 65.004C165.64 65.204 166.044 65.304 166.492 65.304ZM176.642 59.688V66H175.79V60.444H172.766L172.682 62.004C172.618 63.316 172.466 64.324 172.226 65.028C171.986 65.732 171.558 66.084 170.942 66.084C170.774 66.084 170.57 66.052 170.33 65.988L170.39 65.256C170.534 65.288 170.634 65.304 170.69 65.304C171.018 65.304 171.266 65.152 171.434 64.848C171.602 64.544 171.714 64.168 171.77 63.72C171.826 63.272 171.874 62.68 171.914 61.944L172.022 59.688H176.642ZM181.668 66.06C181.06 66.06 180.512 65.924 180.024 65.652C179.536 65.372 179.152 64.988 178.872 64.5C178.592 64.012 178.452 63.46 178.452 62.844C178.452 62.228 178.592 61.676 178.872 61.188C179.152 60.7 179.536 60.32 180.024 60.048C180.512 59.776 181.06 59.64 181.668 59.64C182.276 59.64 182.824 59.776 183.312 60.048C183.8 60.32 184.18 60.7 184.452 61.188C184.732 61.676 184.872 62.228 184.872 62.844C184.872 63.46 184.732 64.012 184.452 64.5C184.18 64.988 183.8 65.372 183.312 65.652C182.824 65.924 182.276 66.06 181.668 66.06ZM181.668 65.304C182.116 65.304 182.516 65.204 182.868 65.004C183.228 64.796 183.508 64.504 183.708 64.128C183.908 63.752 184.008 63.324 184.008 62.844C184.008 62.364 183.908 61.936 183.708 61.56C183.508 61.184 183.228 60.896 182.868 60.696C182.516 60.488 182.116 60.384 181.668 60.384C181.22 60.384 180.816 60.488 180.456 60.696C180.104 60.896 179.824 61.184 179.616 61.56C179.416 61.936 179.316 62.364 179.316 62.844C179.316 63.324 179.416 63.752 179.616 64.128C179.824 64.504 180.104 64.796 180.456 65.004C180.816 65.204 181.22 65.304 181.668 65.304ZM191.156 60.444H187.544V66H186.692V59.688H191.156V60.444ZM192.388 59.688H193.24V66H192.388V59.688ZM192.82 58.308C192.644 58.308 192.496 58.248 192.376 58.128C192.256 58.008 192.196 57.864 192.196 57.696C192.196 57.536 192.256 57.396 192.376 57.276C192.496 57.156 192.644 57.096 192.82 57.096C192.996 57.096 193.144 57.156 193.264 57.276C193.384 57.388 193.444 57.524 193.444 57.684C193.444 57.86 193.384 58.008 193.264 58.128C193.144 58.248 192.996 58.308 192.82 58.308ZM200.517 59.688V66H199.737V63.912H197.757H197.517L196.053 66H195.129L196.701 63.792C196.213 63.656 195.837 63.424 195.573 63.096C195.309 62.768 195.177 62.352 195.177 61.848C195.177 61.144 195.417 60.608 195.897 60.24C196.377 59.872 197.033 59.688 197.865 59.688H200.517ZM196.041 61.872C196.041 62.808 196.637 63.276 197.829 63.276H199.737V60.444H197.889C196.657 60.444 196.041 60.92 196.041 61.872Z" fill="#060606"/>
</svg>
